<svg width="833" height="156" viewBox="0 0 833 156" fill="none" xmlns="http://www.w3.org/2000/svg">
<g clip-path="url(#clip0_103_468)">
<path d="M2 55.85V102.39" stroke="#1D1D1B" stroke-width="4" stroke-miterlimit="10"/>
<path d="M11.31 46.54V111.7" stroke="#1D1D1B" stroke-width="4" stroke-miterlimit="10"/>
<path d="M22.94 32.58V125.66" stroke="#1D1D1B" stroke-width="4" stroke-miterlimit="10"/>
<path d="M32.25 25.6V130.32" stroke="#1D1D1B" stroke-width="4" stroke-miterlimit="10"/>
<path d="M41.56 4.65002V151.26" stroke="#1D1D1B" stroke-width="4" stroke-miterlimit="10"/>
<path d="M53.2 16.29V139.63" stroke="#1D1D1B" stroke-width="4" stroke-miterlimit="10"/>
<path d="M62.51 32.58V125.66" stroke="#1D1D1B" stroke-width="4" stroke-miterlimit="10"/>
<path d="M71.81 44.22V114.03" stroke="#1D1D1B" stroke-width="4" stroke-miterlimit="10"/>
<path d="M83.45 4.65002V151.26" stroke="#1D1D1B" stroke-width="4" stroke-miterlimit="10"/>
<path d="M92.76 23.27V132.65" stroke="#1D1D1B" stroke-width="4" stroke-miterlimit="10"/>
<path d="M102.07 37.23V121.01" stroke="#1D1D1B" stroke-width="4" stroke-miterlimit="10"/>
<path d="M113.7 39.5601V118.68" stroke="#1D1D1B" stroke-width="4" stroke-miterlimit="10"/>
<path d="M123.01 48.87V109.37" stroke="#1D1D1B" stroke-width="4" stroke-miterlimit="10"/>
<path d="M132.32 41.89V116.36" stroke="#1D1D1B" stroke-width="4" stroke-miterlimit="10"/>
<path d="M143.95 46.54V111.7" stroke="#1D1D1B" stroke-width="4" stroke-miterlimit="10"/>
<path d="M153.26 46.54V111.7" stroke="#1D1D1B" stroke-width="4" stroke-miterlimit="10"/>
<path d="M162.57 27.9301V127.99" stroke="#1D1D1B" stroke-width="4" stroke-miterlimit="10"/>
<path d="M174.21 34.91V123.34" stroke="#1D1D1B" stroke-width="4" stroke-miterlimit="10"/>
<path d="M183.52 13.96V141.95" stroke="#1D1D1B" stroke-width="4" stroke-miterlimit="10"/>
<path d="M192.82 2.32996V153.59" stroke="#1D1D1B" stroke-width="4" stroke-miterlimit="10"/>
<path d="M204.46 16.29V139.63" stroke="#1D1D1B" stroke-width="4" stroke-miterlimit="10"/>
<path d="M213.77 4.65002V151.26" stroke="#1D1D1B" stroke-width="4" stroke-miterlimit="10"/>
<path d="M225.4 37.23V121.01" stroke="#1D1D1B" stroke-width="4" stroke-miterlimit="10"/>
<path d="M234.71 51.2V107.05" stroke="#1D1D1B" stroke-width="4" stroke-miterlimit="10"/>
<path d="M244.02 41.89V116.36" stroke="#1D1D1B" stroke-width="4" stroke-miterlimit="10"/>
<path d="M255.66 23.27V132.65" stroke="#1D1D1B" stroke-width="4" stroke-miterlimit="10"/>
<path d="M264.97 0V155.92" stroke="#1D1D1B" stroke-width="4" stroke-miterlimit="10"/>
<path d="M274.27 0V155.92" stroke="#1D1D1B" stroke-width="4" stroke-miterlimit="10"/>
<path d="M285.91 16.29V139.63" stroke="#1D1D1B" stroke-width="4" stroke-miterlimit="10"/>
<path d="M295.22 32.58V125.66" stroke="#1D1D1B" stroke-width="4" stroke-miterlimit="10"/>
<path d="M304.53 53.52V104.72" stroke="#1D1D1B" stroke-width="4" stroke-miterlimit="10"/>
<path d="M316.16 55.85V102.39" stroke="#1D1D1B" stroke-width="4" stroke-miterlimit="10"/>
<path d="M325.47 46.54V111.7" stroke="#1D1D1B" stroke-width="4" stroke-miterlimit="10"/>
<path d="M334.78 32.58V125.66" stroke="#1D1D1B" stroke-width="4" stroke-miterlimit="10"/>
<path d="M346.41 25.6V130.32" stroke="#1D1D1B" stroke-width="4" stroke-miterlimit="10"/>
<path d="M355.72 4.65002V151.26" stroke="#1D1D1B" stroke-width="4" stroke-miterlimit="10"/>
<path d="M365.03 16.29V139.63" stroke="#1D1D1B" stroke-width="4" stroke-miterlimit="10"/>
<path d="M376.67 32.58V125.66" stroke="#1D1D1B" stroke-width="4" stroke-miterlimit="10"/>
<path d="M385.98 44.22V114.03" stroke="#1D1D1B" stroke-width="4" stroke-miterlimit="10"/>
<path d="M395.28 4.65002V151.26" stroke="#1D1D1B" stroke-width="4" stroke-miterlimit="10"/>
<path d="M406.92 23.27V132.65" stroke="#1D1D1B" stroke-width="4" stroke-miterlimit="10"/>
<path d="M416.23 37.23V121.01" stroke="#1D1D1B" stroke-width="4" stroke-miterlimit="10"/>
<path d="M425.54 39.5601V118.68" stroke="#1D1D1B" stroke-width="4" stroke-miterlimit="10"/>
<path d="M437.17 48.87V109.37" stroke="#1D1D1B" stroke-width="4" stroke-miterlimit="10"/>
<path d="M446.48 41.89V116.36" stroke="#1D1D1B" stroke-width="4" stroke-miterlimit="10"/>
<path d="M455.79 46.54V111.7" stroke="#1D1D1B" stroke-width="4" stroke-miterlimit="10"/>
<path d="M467.43 46.54V111.7" stroke="#1D1D1B" stroke-width="4" stroke-miterlimit="10"/>
<path d="M476.73 27.9301V127.99" stroke="#1D1D1B" stroke-width="4" stroke-miterlimit="10"/>
<path d="M486.04 34.91V123.34" stroke="#1D1D1B" stroke-width="4" stroke-miterlimit="10"/>
<path d="M497.68 13.96V141.95" stroke="#1D1D1B" stroke-width="4" stroke-miterlimit="10"/>
<path d="M506.99 2.32996V153.59" stroke="#1D1D1B" stroke-width="4" stroke-miterlimit="10"/>
<path d="M516.3 16.29V139.63" stroke="#1D1D1B" stroke-width="4" stroke-miterlimit="10"/>
<path d="M527.93 4.65002V151.26" stroke="#1D1D1B" stroke-width="4" stroke-miterlimit="10"/>
<path d="M537.24 37.23V121.01" stroke="#1D1D1B" stroke-width="4" stroke-miterlimit="10"/>
<path d="M546.55 51.2V107.05" stroke="#1D1D1B" stroke-width="4" stroke-miterlimit="10"/>
<path d="M558.18 41.89V116.36" stroke="#1D1D1B" stroke-width="4" stroke-miterlimit="10"/>
<path d="M567.49 23.27V132.65" stroke="#1D1D1B" stroke-width="4" stroke-miterlimit="10"/>
<path d="M576.8 0V155.92" stroke="#1D1D1B" stroke-width="4" stroke-miterlimit="10"/>
<path d="M588.44 0V155.92" stroke="#1D1D1B" stroke-width="4" stroke-miterlimit="10"/>
<path d="M597.74 16.29V139.63" stroke="#1D1D1B" stroke-width="4" stroke-miterlimit="10"/>
<path d="M607.05 32.58V125.66" stroke="#1D1D1B" stroke-width="4" stroke-miterlimit="10"/>
<path d="M618.69 53.52V104.72" stroke="#1D1D1B" stroke-width="4" stroke-miterlimit="10"/>
<path d="M628 55.85V102.39" stroke="#1D1D1B" stroke-width="4" stroke-miterlimit="10"/>
<path d="M639.63 46.54V111.7" stroke="#1D1D1B" stroke-width="4" stroke-miterlimit="10"/>
<path d="M648.94 32.58V125.66" stroke="#1D1D1B" stroke-width="4" stroke-miterlimit="10"/>
<path d="M658.25 25.6V130.32" stroke="#1D1D1B" stroke-width="4" stroke-miterlimit="10"/>
<path d="M669.89 4.65002V151.26" stroke="#1D1D1B" stroke-width="4" stroke-miterlimit="10"/>
<path d="M679.19 16.29V139.63" stroke="#1D1D1B" stroke-width="4" stroke-miterlimit="10"/>
<path d="M688.5 32.58V125.66" stroke="#1D1D1B" stroke-width="4" stroke-miterlimit="10"/>
<path d="M700.14 44.22V114.03" stroke="#1D1D1B" stroke-width="4" stroke-miterlimit="10"/>
<path d="M709.45 4.65002V151.26" stroke="#1D1D1B" stroke-width="4" stroke-miterlimit="10"/>
<path d="M718.76 23.27V132.65" stroke="#1D1D1B" stroke-width="4" stroke-miterlimit="10"/>
<path d="M730.39 37.23V121.01" stroke="#1D1D1B" stroke-width="4" stroke-miterlimit="10"/>
<path d="M739.7 39.5601V118.68" stroke="#1D1D1B" stroke-width="4" stroke-miterlimit="10"/>
<path d="M749.01 48.87V109.37" stroke="#1D1D1B" stroke-width="4" stroke-miterlimit="10"/>
<path d="M760.64 41.89V116.36" stroke="#1D1D1B" stroke-width="4" stroke-miterlimit="10"/>
<path d="M769.95 46.54V111.7" stroke="#1D1D1B" stroke-width="4" stroke-miterlimit="10"/>
<path d="M779.26 46.54V111.7" stroke="#1D1D1B" stroke-width="4" stroke-miterlimit="10"/>
<path d="M790.9 27.9301V127.99" stroke="#1D1D1B" stroke-width="4" stroke-miterlimit="10"/>
<path d="M800.2 11.64V144.28" stroke="#1D1D1B" stroke-width="4" stroke-miterlimit="10"/>
<path d="M809.51 13.96V141.95" stroke="#1D1D1B" stroke-width="4" stroke-miterlimit="10"/>
<path d="M821.15 27.9301V127.99" stroke="#1D1D1B" stroke-width="4" stroke-miterlimit="10"/>
<path d="M830.46 58.1801V100.07" stroke="#1D1D1B" stroke-width="4" stroke-miterlimit="10"/>
</g>
<defs>
<clipPath id="clip0_103_468">
<rect width="832.46" height="155.92" fill="white"/>
</clipPath>
</defs>
</svg>
